<svg width="176" height="39" viewBox="0 0 176 39" fill="none" xmlns="http://www.w3.org/2000/svg">
<rect x="0.5" y="0.5" width="175" height="38" rx="9.5" fill="white" stroke="#CCB26E"/>
<path d="M161.314 22.6567L155.657 16.9999L150 22.6567" stroke="#CCB26E"/>
<path d="M20.7969 24L17.4062 15.1406H17.3516C17.4154 15.8424 17.4473 16.6764 17.4473 17.6426V24H16.374V14.0059H18.124L21.2891 22.25H21.3438L24.5361 14.0059H26.2725V24H25.1104V17.5605C25.1104 16.8223 25.1423 16.0202 25.2061 15.1543H25.1514L21.7334 24H20.7969ZM33.457 24L33.2314 22.9336H33.1768C32.8031 23.403 32.4294 23.722 32.0557 23.8906C31.6865 24.0547 31.224 24.1367 30.668 24.1367C29.9251 24.1367 29.3418 23.9453 28.918 23.5625C28.4987 23.1797 28.2891 22.6351 28.2891 21.9287C28.2891 20.4157 29.499 19.6227 31.9189 19.5498L33.1904 19.5088V19.0439C33.1904 18.4561 33.0628 18.0231 32.8076 17.7451C32.557 17.4626 32.1536 17.3213 31.5977 17.3213C30.9733 17.3213 30.2669 17.5127 29.4785 17.8955L29.1299 17.0273C29.499 16.8268 29.9023 16.6696 30.3398 16.5557C30.7819 16.4417 31.224 16.3848 31.666 16.3848C32.5592 16.3848 33.2201 16.583 33.6484 16.9795C34.0814 17.376 34.2979 18.0117 34.2979 18.8867V24H33.457ZM30.8936 23.2002C31.5999 23.2002 32.1536 23.0065 32.5547 22.6191C32.9603 22.2318 33.1631 21.6895 33.1631 20.9922V20.3154L32.0283 20.3633C31.126 20.3952 30.4743 20.5365 30.0732 20.7871C29.6768 21.0332 29.4785 21.4183 29.4785 21.9424C29.4785 22.3525 29.6016 22.6647 29.8477 22.8789C30.0983 23.0931 30.4469 23.2002 30.8936 23.2002ZM41.6943 17.4785H39.2607V24H38.126V17.4785H35.7197V16.5078H41.6943V17.4785ZM46.3428 24.1367C45.2354 24.1367 44.3604 23.7995 43.7178 23.125C43.0798 22.4505 42.7607 21.514 42.7607 20.3154C42.7607 19.1077 43.057 18.1484 43.6494 17.4375C44.2464 16.7266 45.0462 16.3711 46.0488 16.3711C46.9876 16.3711 47.7305 16.681 48.2773 17.3008C48.8242 17.916 49.0977 18.7295 49.0977 19.7412V20.459H43.9365C43.9593 21.3385 44.1803 22.0062 44.5996 22.4619C45.0234 22.9176 45.6182 23.1455 46.3838 23.1455C47.1904 23.1455 47.988 22.9769 48.7764 22.6396V23.6514C48.3753 23.8245 47.9948 23.9476 47.6348 24.0205C47.2793 24.098 46.8486 24.1367 46.3428 24.1367ZM46.0352 17.3213C45.4336 17.3213 44.9528 17.5173 44.5928 17.9092C44.2373 18.3011 44.0277 18.8434 43.9639 19.5361H47.8809C47.8809 18.8206 47.7214 18.2738 47.4023 17.8955C47.0833 17.5127 46.6276 17.3213 46.0352 17.3213ZM54.5254 24.1367C54.0378 24.1367 53.5911 24.0479 53.1855 23.8701C52.7845 23.6878 52.4473 23.4098 52.1738 23.0361H52.0918C52.1465 23.4736 52.1738 23.8883 52.1738 24.2803V27.3633H51.0391V16.5078H51.9619L52.1191 17.5332H52.1738C52.4655 17.123 52.805 16.8268 53.1924 16.6445C53.5798 16.4622 54.0241 16.3711 54.5254 16.3711C55.5189 16.3711 56.2845 16.7106 56.8223 17.3896C57.3646 18.0687 57.6357 19.0212 57.6357 20.2471C57.6357 21.4775 57.36 22.4346 56.8086 23.1182C56.2617 23.7972 55.5007 24.1367 54.5254 24.1367ZM54.3613 17.335C53.5957 17.335 53.042 17.5469 52.7002 17.9707C52.3584 18.3945 52.1829 19.069 52.1738 19.9941V20.2471C52.1738 21.2998 52.3493 22.054 52.7002 22.5098C53.0511 22.9609 53.6139 23.1865 54.3887 23.1865C55.0358 23.1865 55.5417 22.9245 55.9062 22.4004C56.2754 21.8763 56.46 21.154 56.46 20.2334C56.46 19.2992 56.2754 18.5837 55.9062 18.0869C55.5417 17.5856 55.0267 17.335 54.3613 17.335ZM60.6914 16.5078V21.2588L60.6436 22.5029L60.623 22.8926L64.6768 16.5078H66.0918V24H65.0322V19.4199L65.0527 18.5176L65.0869 17.6289L61.04 24H59.625V16.5078H60.6914ZM73.1055 24L72.8799 22.9336H72.8252C72.4515 23.403 72.0778 23.722 71.7041 23.8906C71.335 24.0547 70.8724 24.1367 70.3164 24.1367C69.5736 24.1367 68.9902 23.9453 68.5664 23.5625C68.1471 23.1797 67.9375 22.6351 67.9375 21.9287C67.9375 20.4157 69.1475 19.6227 71.5674 19.5498L72.8389 19.5088V19.0439C72.8389 18.4561 72.7113 18.0231 72.4561 17.7451C72.2054 17.4626 71.8021 17.3213 71.2461 17.3213C70.6217 17.3213 69.9154 17.5127 69.127 17.8955L68.7783 17.0273C69.1475 16.8268 69.5508 16.6696 69.9883 16.5557C70.4303 16.4417 70.8724 16.3848 71.3145 16.3848C72.2077 16.3848 72.8685 16.583 73.2969 16.9795C73.7298 17.376 73.9463 18.0117 73.9463 18.8867V24H73.1055ZM70.542 23.2002C71.2484 23.2002 71.8021 23.0065 72.2031 22.6191C72.6087 22.2318 72.8115 21.6895 72.8115 20.9922V20.3154L71.6768 20.3633C70.7744 20.3952 70.1227 20.5365 69.7217 20.7871C69.3252 21.0332 69.127 21.4183 69.127 21.9424C69.127 22.3525 69.25 22.6647 69.4961 22.8789C69.7467 23.0931 70.0954 23.2002 70.542 23.2002ZM81.876 24H80.7275V17.4785H78.4785C78.3555 19.1009 78.1846 20.3883 77.9658 21.3408C77.7471 22.2933 77.4622 22.9906 77.1113 23.4326C76.765 23.8747 76.3229 24.0957 75.7852 24.0957C75.5391 24.0957 75.3431 24.0684 75.1973 24.0137V23.1729C75.2975 23.2002 75.4115 23.2139 75.5391 23.2139C76.0632 23.2139 76.4801 22.6602 76.79 21.5527C77.0999 20.4453 77.3346 18.7637 77.4941 16.5078H81.876V24Z" fill="#333333"/>
</svg>
